<svg width="218" height="180" viewBox="0 0 218 180" fill="none" xmlns="http://www.w3.org/2000/svg">
<g clip-path="url(#clip0_147_3257)">
<path d="M0 145.338H8.745V164.274H13.5557V145.338H22.3007V141.24H0V145.338Z" fill="white"/>
<path d="M47.1116 144.193C45.9249 143.157 44.5008 142.358 42.8303 141.785C41.1599 141.213 39.325 140.931 37.3168 140.931C35.2994 140.931 33.4555 141.213 31.7941 141.785C30.1328 142.358 28.7087 143.157 27.522 144.193C26.3353 145.229 25.4134 146.474 24.7561 147.919C24.0989 149.363 23.7703 150.953 23.7703 152.698C23.7703 154.452 24.0989 156.051 24.7561 157.514C25.4134 158.977 26.3353 160.23 27.522 161.275C28.7087 162.329 30.1328 163.147 31.7941 163.729C33.4555 164.31 35.2994 164.601 37.3168 164.601C39.325 164.601 41.169 164.31 42.8303 163.729C44.5008 163.147 45.9249 162.329 47.1116 161.275C48.2983 160.221 49.2202 158.967 49.8775 157.514C50.5347 156.051 50.8633 154.452 50.8633 152.698C50.8633 150.962 50.5347 149.363 49.8775 147.919C49.2202 146.465 48.2983 145.229 47.1116 144.193ZM45.3863 155.905C44.939 156.859 44.3274 157.668 43.5515 158.341C42.7756 159.013 41.8536 159.531 40.7856 159.894C39.7176 160.258 38.5583 160.439 37.3077 160.439C36.0571 160.439 34.8978 160.258 33.8298 159.894C32.7617 159.531 31.8398 159.013 31.0547 158.341C30.2697 157.668 29.6581 156.859 29.2199 155.905C28.7817 154.951 28.5627 153.879 28.5627 152.689C28.5627 151.499 28.7817 150.435 29.2199 149.49C29.6581 148.545 30.2697 147.746 31.0547 147.092C31.8398 146.437 32.7617 145.938 33.8298 145.592C34.8978 145.247 36.0571 145.075 37.3077 145.075C38.5583 145.075 39.7176 145.247 40.7856 145.592C41.8536 145.938 42.7756 146.437 43.5515 147.092C44.3274 147.746 44.939 148.545 45.3863 149.49C45.8336 150.435 46.0527 151.499 46.0527 152.689C46.0527 153.879 45.8336 154.951 45.3863 155.905Z" fill="white"/>
<path d="M72.0048 159.64L74.2687 164.274H79.3167L67.8606 141.24H62.7669L51.6394 164.274H56.7057L58.9056 159.64H72.0048ZM65.3594 146.083L70.4804 156.55H60.3753L65.3594 146.083Z" fill="white"/>
<path d="M181.308 141.24L170.181 164.274H175.247L177.447 159.64H190.546L192.81 164.274H197.858L186.402 141.24H181.308ZM178.907 156.55L183.892 146.083L189.013 156.55H178.907Z" fill="white"/>
<path d="M102.028 159.176L87.0757 141.24H82.4658V164.274H87.2674V146.356L102.201 164.274H106.839V141.24H102.028V159.176Z" fill="white"/>
<path d="M162.686 148.164H147.953V141.24H143.151V164.274H147.953V151.244H162.686V164.274H167.506V141.24H162.686V148.164Z" fill="white"/>
<path d="M195.594 141.24V145.338H204.339V164.274H209.141V145.338H217.895V141.24H195.594Z" fill="white"/>
<path d="M133.822 141.84C133.795 141.831 133.767 141.822 133.74 141.812C132.581 141.485 131.248 141.295 129.724 141.249C129.614 141.249 129.514 141.24 129.404 141.24C129.276 141.24 129.139 141.24 129.012 141.24H116.524V164.274H121.325V157.077H126.127C126.164 157.077 126.2 157.077 126.237 157.077C126.273 157.077 126.31 157.077 126.346 157.077H130.472C130.499 157.077 130.527 157.077 130.545 157.077C130.563 157.077 130.582 157.077 130.591 157.077H130.929L130.919 157.068C135.392 156.887 138.962 153.407 138.962 149.145C138.962 145.856 136.844 143.039 133.822 141.84ZM134.589 150.154V150.163C134.553 150.563 134.47 150.944 134.343 151.299C134.324 151.362 134.297 151.426 134.27 151.489C134.041 152.044 133.694 152.516 133.238 152.907C132.782 153.298 132.207 153.597 131.522 153.806C130.837 154.015 130.043 154.124 129.13 154.124H121.325V145.311H129.13C130.947 145.311 132.316 145.692 133.229 146.456C134.142 147.219 134.598 148.282 134.598 149.645C134.607 149.817 134.598 149.99 134.589 150.154Z" fill="white"/>
<path d="M55.5827 172.197H54.6243V179.848H55.5827V172.197Z" fill="#009E4A"/>
<path d="M67.5685 173.188C67.5046 173.024 67.4042 172.879 67.2581 172.752C67.1212 172.633 66.9112 172.524 66.6556 172.443C66.3909 172.361 66.0623 172.297 65.6606 172.252C65.259 172.215 64.7661 172.188 64.1727 172.188H58.7322V179.839H59.6907V176.813H64.0084C64.4374 176.813 64.7934 176.822 65.0855 176.831C65.3777 176.85 65.615 176.877 65.8067 176.913C65.9984 176.949 66.1444 177.013 66.2448 177.086C66.3453 177.158 66.4274 177.258 66.4731 177.377C66.5187 177.495 66.5461 177.64 66.5552 177.804C66.5643 177.967 66.5643 178.167 66.5643 178.403V179.839H67.5228V178.403C67.5228 178.122 67.5046 177.876 67.4772 177.658C67.4498 177.44 67.395 177.249 67.3037 177.086C67.2216 176.922 67.0938 176.795 66.9295 176.695C66.7652 176.595 66.5552 176.522 66.2905 176.486C66.5552 176.45 66.7834 176.377 66.9569 176.277C67.1303 176.177 67.2764 176.041 67.3859 175.868C67.4954 175.696 67.5685 175.496 67.6141 175.25C67.6597 175.005 67.678 174.732 67.678 174.414C67.678 174.169 67.6689 173.942 67.6598 173.733C67.678 173.542 67.6415 173.351 67.5685 173.188ZM66.7287 175.032C66.7195 175.196 66.6921 175.341 66.6465 175.459C66.6009 175.577 66.5187 175.677 66.4183 175.75C66.3179 175.823 66.1718 175.877 65.9801 175.923C65.7884 175.959 65.5511 175.986 65.259 176.004C64.9669 176.023 64.6109 176.032 64.1818 176.032H59.6998V173.006H64.1818C64.6109 173.006 64.9669 173.015 65.259 173.024C65.5511 173.033 65.7884 173.061 65.9801 173.088C66.1718 173.124 66.3179 173.17 66.4183 173.233C66.5187 173.297 66.6009 173.379 66.6465 173.488C66.6921 173.597 66.7195 173.724 66.7287 173.878C66.7378 174.033 66.7378 174.224 66.7378 174.433C66.7469 174.66 66.7378 174.86 66.7287 175.032Z" fill="#009E4A"/>
<path d="M80.6036 173.188C80.5397 173.024 80.4393 172.879 80.2933 172.752C80.1472 172.633 79.9464 172.524 79.6908 172.443C79.4261 172.361 79.0974 172.297 78.6958 172.252C78.2941 172.215 77.8012 172.188 77.2079 172.188H71.7673V179.839H72.7258V176.813H77.0435C77.4726 176.813 77.8286 176.822 78.1207 176.831C78.4128 176.85 78.6501 176.877 78.8418 176.913C79.0335 176.949 79.1796 177.013 79.28 177.086C79.3804 177.158 79.4626 177.258 79.5082 177.377C79.5538 177.495 79.5812 177.64 79.5904 177.804C79.5995 177.967 79.5995 178.167 79.5995 178.403V179.839H80.558V178.403C80.558 178.122 80.5397 177.876 80.5123 177.658C80.4849 177.44 80.4302 177.249 80.3389 177.086C80.2567 176.922 80.1289 176.795 79.9646 176.695C79.8003 176.595 79.5904 176.522 79.3256 176.486C79.5904 176.45 79.8186 176.377 79.992 176.277C80.1655 176.177 80.3115 176.041 80.421 175.868C80.5306 175.696 80.6036 175.496 80.6493 175.25C80.6949 175.005 80.7132 174.732 80.7132 174.414C80.7132 174.169 80.704 173.942 80.6949 173.733C80.704 173.542 80.6675 173.351 80.6036 173.188ZM79.7638 175.032C79.7547 175.196 79.7273 175.341 79.6816 175.459C79.636 175.577 79.5539 175.677 79.4534 175.75C79.353 175.823 79.207 175.877 79.0153 175.923C78.8236 175.959 78.5862 175.986 78.2941 176.004C78.002 176.023 77.646 176.032 77.217 176.032H72.7349V173.006H77.217C77.646 173.006 78.002 173.015 78.2941 173.024C78.5862 173.033 78.8236 173.061 79.0153 173.088C79.207 173.124 79.353 173.17 79.4534 173.233C79.5539 173.297 79.636 173.379 79.6816 173.488C79.7273 173.597 79.7547 173.724 79.7638 173.878C79.7729 174.033 79.7729 174.224 79.7729 174.433C79.7729 174.66 79.7729 174.86 79.7638 175.032Z" fill="#009E4A"/>
<path d="M87.9429 172.197L83.5613 179.848H84.6749L85.6791 178.094H91.6947L92.6897 179.848H93.6938L89.3213 172.197H87.9429ZM86.1264 177.295L88.6823 172.824L91.2291 177.295H86.1264Z" fill="#009E4A"/>
<path d="M106.118 173.869C106.054 173.587 105.953 173.342 105.807 173.133C105.661 172.924 105.46 172.752 105.205 172.606C104.94 172.47 104.612 172.361 104.21 172.297C103.808 172.234 103.315 172.197 102.722 172.197H96.9619V179.848H102.722C103.306 179.848 103.799 179.812 104.21 179.748C104.612 179.675 104.94 179.575 105.205 179.439C105.47 179.303 105.67 179.13 105.807 178.912C105.944 178.703 106.054 178.458 106.118 178.176C106.182 177.894 106.218 177.576 106.236 177.213C106.245 176.859 106.255 176.459 106.255 176.023C106.255 175.586 106.245 175.196 106.236 174.832C106.227 174.478 106.191 174.16 106.118 173.869ZM105.278 177.195C105.269 177.522 105.241 177.794 105.196 178.022C105.15 178.249 105.068 178.421 104.968 178.558C104.867 178.694 104.721 178.794 104.529 178.867C104.338 178.939 104.1 178.985 103.799 179.012C103.507 179.039 103.151 179.048 102.722 179.048H97.9204V172.988H102.722C103.151 172.988 103.507 172.997 103.799 173.024C104.091 173.051 104.329 173.097 104.52 173.17C104.712 173.242 104.858 173.342 104.958 173.478C105.059 173.615 105.141 173.796 105.187 174.024C105.232 174.251 105.26 174.523 105.269 174.85C105.278 175.178 105.278 175.568 105.278 176.023C105.278 176.477 105.287 176.868 105.278 177.195Z" fill="#009E4A"/>
<path d="M110.664 172.197H109.705V179.848H110.664V172.197Z" fill="#009E4A"/>
<path d="M118.395 172.197L114.014 179.848H115.127L116.131 178.094H122.147L123.142 179.848H124.146L119.774 172.197H118.395ZM116.588 177.295L119.144 172.824L121.691 177.295H116.588Z" fill="#009E4A"/>
<path d="M124.977 172.997H128.82V179.848H129.778V172.997H133.621V172.197H124.977V172.997Z" fill="#009E4A"/>
<path d="M137.565 172.197H136.606V179.848H137.565V172.197Z" fill="#009E4A"/>
<path d="M150.774 173.787C150.71 173.487 150.609 173.233 150.463 173.015C150.326 172.797 150.126 172.615 149.861 172.47C149.605 172.324 149.267 172.215 148.866 172.143C148.464 172.07 147.971 172.034 147.387 172.034H144.493C143.909 172.034 143.407 172.07 143.005 172.143C142.604 172.215 142.275 172.324 142.01 172.47C141.746 172.615 141.545 172.797 141.408 173.015C141.262 173.233 141.161 173.487 141.098 173.787C141.034 174.087 140.997 174.414 140.988 174.787C140.979 175.159 140.97 175.568 140.97 176.023C140.97 176.477 140.979 176.886 140.988 177.258C140.997 177.631 141.034 177.967 141.098 178.258C141.161 178.558 141.262 178.812 141.408 179.03C141.545 179.248 141.755 179.43 142.01 179.575C142.266 179.721 142.604 179.83 143.005 179.902C143.407 179.975 143.9 180.011 144.493 180.011H147.387C147.971 180.011 148.464 179.975 148.866 179.902C149.267 179.83 149.596 179.721 149.861 179.575C150.126 179.43 150.317 179.248 150.463 179.03C150.6 178.812 150.71 178.558 150.774 178.258C150.838 177.958 150.874 177.631 150.892 177.258C150.901 176.886 150.911 176.477 150.911 176.023C150.911 175.568 150.901 175.159 150.892 174.787C150.874 174.414 150.838 174.078 150.774 173.787ZM149.934 177.249C149.925 177.595 149.897 177.885 149.852 178.122C149.806 178.358 149.733 178.549 149.623 178.694C149.523 178.839 149.377 178.948 149.185 179.021C148.994 179.094 148.756 179.148 148.464 179.176C148.172 179.203 147.816 179.212 147.387 179.212H144.493C144.064 179.212 143.708 179.203 143.416 179.176C143.124 179.148 142.887 179.103 142.695 179.021C142.503 178.948 142.357 178.839 142.257 178.694C142.156 178.549 142.083 178.358 142.038 178.122C141.992 177.885 141.965 177.595 141.956 177.249C141.946 176.904 141.946 176.495 141.946 176.014C141.946 175.532 141.946 175.123 141.956 174.778C141.965 174.432 141.992 174.142 142.038 173.905C142.083 173.669 142.156 173.478 142.266 173.333C142.366 173.188 142.512 173.079 142.704 173.006C142.896 172.933 143.133 172.879 143.425 172.851C143.717 172.824 144.073 172.815 144.502 172.815H147.396C147.825 172.815 148.181 172.824 148.473 172.851C148.765 172.879 149.003 172.924 149.194 173.006C149.386 173.079 149.532 173.188 149.633 173.333C149.733 173.478 149.806 173.669 149.861 173.905C149.906 174.142 149.934 174.432 149.943 174.778C149.952 175.123 149.952 175.532 149.952 176.014C149.943 176.495 149.934 176.913 149.934 177.249Z" fill="#009E4A"/>
<path d="M162.385 178.894L155.338 172.197H153.658V179.848H154.617V172.997L162.065 179.848H163.343V172.197H162.385V178.894Z" fill="#009E4A"/>
<path d="M138.021 126.766L172.518 82.5426C172.846 82.1247 172.965 81.5795 172.846 81.0707L160.532 25.9258C160.413 25.3988 160.066 24.9536 159.583 24.7173L109.733 0.184242C109.23 -0.0610885 108.646 -0.0610885 108.153 0.184242L58.3123 24.7264C57.8285 24.9626 57.4816 25.4079 57.3629 25.9349L45.0396 81.0707C44.93 81.5886 45.0487 82.1247 45.3682 82.5426L79.8644 126.766C80.2022 127.202 80.7225 127.456 81.2793 127.456H136.606C137.154 127.456 137.684 127.202 138.021 126.766ZM60.6583 27.5341L60.7222 27.5068H87.3679L71.731 47.5512L66.5461 54.2024L64.4831 44.9798L60.6217 27.6885L60.6583 27.5341ZM108.947 3.76425L109.011 3.79151L125.662 25.1262H92.2425L108.884 3.79151L108.947 3.76425ZM75.4919 94.264L71.3567 75.737L67.2216 57.2009L90.3894 27.4977H127.505L150.673 57.2009L148.327 67.7229L142.403 94.2549L108.947 110.728L93.2923 103.023L75.4919 94.264ZM141.737 97.2443L135.803 123.804L135.73 123.904H135.685L111.631 112.064L141.737 97.2443ZM144.475 95.8905L159.592 88.4488L165.744 85.4139L139.217 119.424L140.167 115.172L144.475 95.8905ZM169.149 80.8799L169.186 81.0252L169.113 81.1161L166.082 82.6063L145.142 92.9192L152.572 59.636L156.461 64.6244L169.149 80.8799ZM158.487 33.1494L167.935 75.4644L153.248 56.6285L158.487 33.1494ZM157.237 27.5341L157.273 27.6794L153.412 44.9707L151.349 54.1933L146.164 47.5421L130.527 27.4977H157.173L157.237 27.5341ZM128.674 25.1353L113.904 6.20847L152.353 25.1353H128.674ZM103.452 6.88995L89.221 25.1353H65.5328L103.982 6.20847L103.452 6.88995ZM64.6474 56.6376L49.9598 75.4644L59.4077 33.1494L64.6474 56.6376ZM65.3137 59.636L72.7443 92.9101L48.7822 81.1252L48.7092 81.0343L48.7457 80.8889L61.425 64.6335L65.3137 59.636ZM114.653 116.189L130.308 123.895H87.587L108.947 113.382L114.653 116.189ZM73.4106 95.8905L78.6686 119.424L52.1323 85.4139L73.4106 95.8905ZM82.1556 123.904L82.0826 123.813L76.1491 97.2443L106.255 112.064L82.2013 123.904H82.1556Z" fill="#009E4A"/>
</g>
<defs>
<clipPath id="clip0_147_3257">
<rect width="217.895" height="180" fill="white"/>
</clipPath>
</defs>
</svg>
