<svg width="669" height="550" viewBox="0 0 669 550" fill="none" xmlns="http://www.w3.org/2000/svg">
<g clip-path="url(#clip0_266_6135)">
<path d="M26.85 442.65H0V430.02H68.44V442.65H41.59V501.05H26.85V442.65Z" fill="#2C1C5A"/>
<path d="M72.9199 465.33C72.9199 459.97 73.9299 455.06 75.9399 450.61C77.9599 446.15 80.7899 442.33 84.4299 439.13C88.0699 435.93 92.4499 433.46 97.5499 431.7C102.65 429.94 108.31 429.07 114.51 429.07C120.68 429.07 126.33 429.95 131.44 431.7C136.56 433.46 140.94 435.94 144.59 439.13C148.23 442.33 151.06 446.15 153.08 450.61C155.1 455.06 156.1 459.97 156.1 465.33C156.1 470.72 155.09 475.67 153.08 480.17C151.06 484.67 148.23 488.54 144.59 491.78C140.94 495.02 136.56 497.54 131.44 499.35C126.32 501.15 120.68 502.05 114.51 502.05C108.31 502.05 102.65 501.15 97.5499 499.35C92.4499 497.55 88.0699 495.03 84.4299 491.78C80.7799 488.54 77.9499 484.67 75.9399 480.17C73.9299 475.67 72.9199 470.72 72.9199 465.33ZM87.6699 465.33C87.6699 469 88.3399 472.3 89.6899 475.24C91.0399 478.18 92.9199 480.69 95.3199 482.76C97.7199 484.84 100.56 486.44 103.83 487.56C107.1 488.68 110.66 489.24 114.51 489.24C118.35 489.24 121.91 488.68 125.19 487.56C128.46 486.44 131.29 484.84 133.68 482.76C136.07 480.69 137.94 478.18 139.31 475.24C140.68 472.3 141.36 469 141.36 465.33C141.36 461.67 140.68 458.38 139.31 455.47C137.94 452.56 136.07 450.1 133.68 448.08C131.29 446.07 128.46 444.53 125.19 443.47C121.92 442.41 118.36 441.88 114.51 441.88C110.66 441.88 107.1 442.41 103.83 443.47C100.56 444.53 97.7199 446.07 95.3199 448.08C92.9199 450.1 91.0399 452.56 89.6899 455.47C88.3399 458.38 87.6699 461.66 87.6699 465.33Z" fill="#2C1C5A"/>
<path d="M192.65 430.02H208.28L243.45 501.05H227.96L221.01 486.75H180.79L174.04 501.05H158.5L192.65 430.02ZM216.33 477.24L200.6 444.97L185.29 477.24H216.33Z" fill="#2C1C5A"/>
<path d="M556.48 430.02H572.11L607.28 501.05H591.8L584.84 486.75H544.62L537.87 501.05H522.33L556.48 430.02ZM580.17 477.24L564.44 444.97L549.13 477.24H580.17Z" fill="#2C1C5A"/>
<path d="M253.1 430.02H267.27L313.17 485.32V430.02H327.92V501.05H313.69L267.85 445.82V501.05H253.1V430.02Z" fill="#2C1C5A"/>
<path d="M439.37 430.02H454.12V451.38H499.34V430.02H514.14V501.05H499.34V460.88H454.12V501.05H439.37V430.02Z" fill="#2C1C5A"/>
<path d="M627.18 442.65H600.33V430.02H668.77V442.65H641.93V501.05H627.18V442.65Z" fill="#2C1C5A"/>
<path d="M426.52 454.4C426.52 444.27 420.02 435.58 410.76 431.87C410.75 431.87 410.75 431.87 410.75 431.86C410.67 431.84 410.6 431.81 410.52 431.79C406.97 430.77 402.86 430.19 398.2 430.05C397.87 430.04 397.54 430.03 397.21 430.03C396.81 430.02 396.41 430.02 396 430.02H357.66V501.05H372.4V478.86H387.13C387.24 478.86 387.35 478.86 387.46 478.86C387.57 478.86 387.68 478.86 387.79 478.86H400.45C400.53 478.86 400.6 478.86 400.68 478.86C400.73 478.86 400.78 478.86 400.83 478.86H401.86L401.84 478.84C415.57 478.26 426.52 467.54 426.52 454.4ZM413.09 457.51C413.09 457.52 413.09 457.53 413.08 457.55C412.97 458.79 412.71 459.96 412.33 461.04C412.26 461.23 412.18 461.43 412.11 461.62C411.41 463.33 410.36 464.79 408.95 465.98C407.54 467.18 405.79 468.1 403.69 468.75C401.59 469.4 399.15 469.73 396.36 469.73H372.4V442.55H396.36C401.94 442.55 406.13 443.72 408.94 446.07C411.75 448.42 413.15 451.7 413.15 455.91C413.16 456.47 413.13 457 413.09 457.51Z" fill="#2C1C5A"/>
<path d="M228.51 287.68L202.36 170.03L143.61 245.69L228.51 287.69V287.68Z" fill="#009E4A"/>
<path d="M181.39 75.6699L143.61 245.7L202.36 170.03L181.39 75.6699Z" fill="#06703A"/>
<path d="M334.391 0L181.391 75.67H275.631L334.391 0Z" fill="#06703A"/>
<path d="M228.51 287.69H228.5H228.51L143.61 245.7L249.48 382.05L228.51 287.69Z" fill="#06703A"/>
<path d="M249.48 382.05H419.29L334.39 340.05L249.48 382.05Z" fill="#06703A"/>
<path d="M466.41 170.03L525.17 245.7L487.38 75.6699L466.41 170.03Z" fill="#06703A"/>
<path d="M440.26 287.71L440.28 287.72L440.26 287.71L419.29 382.04L525.17 245.69L440.26 287.69V287.71Z" fill="#06703A"/>
<path d="M487.381 75.67L334.391 0L393.141 75.67H487.381Z" fill="#06703A"/>
<path d="M466.411 170.03L487.381 75.6699H393.141L466.411 170.03Z" fill="#009E4A"/>
<path d="M393.14 75.67L334.39 0L275.63 75.67H393.14Z" fill="#009E4A"/>
<path d="M440.261 287.69L525.171 245.7L466.411 170.03L440.261 287.69Z" fill="#009E4A"/>
<path d="M440.241 287.7L334.391 340.05L419.291 382.05L440.261 287.71L440.241 287.7Z" fill="#009E4A"/>
<path d="M275.631 75.6699H181.391L202.361 170.03L275.631 75.6699Z" fill="#009E4A"/>
<path d="M228.511 287.69L249.481 382.05L334.391 340.05L228.511 287.69Z" fill="#009E4A"/>
<path d="M202.36 170.03L275.63 75.6699H393.14L466.41 170.03L440.26 287.71L334.39 340.05L228.51 287.68L202.36 170.03Z" fill="#50B848"/>
<path d="M170.61 525.48H167.66V549.07H170.61V525.48Z" fill="#009E4A"/>
<path d="M207.32 549.07H204.37V544.65C204.37 543.93 204.36 543.32 204.33 542.8C204.3 542.28 204.22 541.84 204.07 541.47C203.92 541.1 203.69 540.8 203.37 540.58C203.05 540.35 202.6 540.18 202.02 540.06C201.44 539.94 200.7 539.85 199.8 539.81C198.9 539.76 197.8 539.74 196.49 539.74H183.24V549.08H180.29V525.49H196.98C198.78 525.49 200.3 525.55 201.53 525.68C202.77 525.81 203.78 526 204.59 526.26C205.4 526.52 206.01 526.83 206.45 527.21C206.89 527.59 207.2 528.03 207.4 528.55C207.6 529.06 207.72 529.63 207.75 530.27C207.79 530.9 207.8 531.61 207.8 532.37C207.8 533.35 207.73 534.22 207.59 534.96C207.45 535.7 207.22 536.34 206.89 536.86C206.56 537.38 206.13 537.8 205.58 538.11C205.04 538.42 204.35 538.64 203.54 538.76C204.36 538.88 205.02 539.1 205.51 539.41C206 539.72 206.38 540.12 206.65 540.61C206.92 541.1 207.09 541.69 207.18 542.36C207.27 543.04 207.31 543.8 207.31 544.66V549.07H207.32ZM183.23 537.28H196.98C198.29 537.28 199.39 537.26 200.29 537.21C201.18 537.16 201.92 537.08 202.51 536.96C203.09 536.84 203.54 536.66 203.86 536.44C204.18 536.21 204.41 535.92 204.56 535.55C204.71 535.18 204.8 534.74 204.82 534.22C204.85 533.7 204.86 533.08 204.86 532.37C204.86 531.71 204.85 531.13 204.82 530.65C204.79 530.17 204.71 529.76 204.56 529.44C204.41 529.11 204.18 528.85 203.86 528.66C203.54 528.47 203.09 528.31 202.51 528.21C201.93 528.11 201.19 528.03 200.29 528C199.39 527.97 198.29 527.95 196.98 527.95H183.23V537.28Z" fill="#009E4A"/>
<path d="M247.31 549.07H244.36V544.65C244.36 543.93 244.35 543.32 244.32 542.8C244.29 542.28 244.21 541.84 244.06 541.47C243.91 541.1 243.68 540.8 243.36 540.58C243.04 540.35 242.59 540.18 242.01 540.06C241.43 539.94 240.69 539.85 239.79 539.81C238.89 539.76 237.79 539.74 236.48 539.74H223.23V549.08H220.28V525.49H236.97C238.77 525.49 240.29 525.55 241.52 525.68C242.76 525.81 243.77 526 244.58 526.26C245.39 526.52 246 526.83 246.44 527.21C246.88 527.59 247.19 528.03 247.39 528.55C247.59 529.06 247.71 529.63 247.74 530.27C247.78 530.9 247.79 531.61 247.79 532.37C247.79 533.35 247.72 534.22 247.58 534.96C247.44 535.7 247.21 536.34 246.88 536.86C246.55 537.38 246.12 537.8 245.57 538.11C245.03 538.42 244.35 538.64 243.53 538.76C244.35 538.88 245.01 539.1 245.5 539.41C245.99 539.72 246.37 540.12 246.64 540.61C246.91 541.1 247.08 541.69 247.17 542.36C247.26 543.04 247.3 543.8 247.3 544.66V549.07H247.31ZM223.23 537.28H236.98C238.29 537.28 239.39 537.26 240.29 537.21C241.18 537.16 241.92 537.08 242.51 536.96C243.09 536.84 243.54 536.66 243.86 536.44C244.18 536.21 244.41 535.92 244.56 535.55C244.71 535.18 244.8 534.74 244.82 534.22C244.84 533.7 244.86 533.08 244.86 532.37C244.86 531.71 244.85 531.13 244.82 530.65C244.79 530.17 244.71 529.76 244.56 529.44C244.41 529.11 244.18 528.85 243.86 528.66C243.54 528.47 243.09 528.31 242.51 528.21C241.93 528.1 241.19 528.03 240.29 528C239.39 527.97 238.29 527.95 236.98 527.95H223.23V537.28Z" fill="#009E4A"/>
<path d="M281.41 543.66H262.95L259.87 549.07H256.45L269.91 525.48H274.14L287.55 549.07H284.46L281.41 543.66ZM280.02 541.21L272.2 527.43L264.35 541.21H280.02Z" fill="#009E4A"/>
<path d="M297.62 549.07V525.48H315.3C317.1 525.48 318.62 525.58 319.85 525.79C321.08 526 322.1 526.32 322.91 526.75C323.71 527.18 324.33 527.72 324.77 528.36C325.2 529 325.52 529.77 325.72 530.64C325.92 531.51 326.04 532.5 326.07 533.6C326.11 534.7 326.12 535.92 326.12 537.26C326.12 538.6 326.1 539.82 326.07 540.92C326.03 542.02 325.92 543.01 325.72 543.88C325.52 544.76 325.2 545.52 324.77 546.16C324.33 546.81 323.71 547.34 322.91 547.77C322.1 548.2 321.09 548.52 319.85 548.73C318.62 548.94 317.1 549.04 315.3 549.04H297.62V549.07ZM315.3 546.61C316.6 546.61 317.7 546.57 318.6 546.5C319.5 546.43 320.24 546.28 320.83 546.06C321.41 545.84 321.87 545.52 322.18 545.1C322.5 544.68 322.73 544.12 322.88 543.44C323.03 542.75 323.12 541.9 323.14 540.89C323.17 539.88 323.18 538.68 323.18 537.27C323.18 535.87 323.17 534.66 323.14 533.65C323.11 532.64 323.03 531.79 322.88 531.1C322.73 530.41 322.5 529.85 322.18 529.43C321.86 529.01 321.41 528.69 320.83 528.47C320.25 528.25 319.51 528.1 318.61 528.03C317.72 527.96 316.61 527.92 315.3 527.92H300.57V546.6H315.3V546.61Z" fill="#009E4A"/>
<path d="M339.67 525.48H336.72V549.07H339.67V525.48Z" fill="#009E4A"/>
<path d="M374.89 543.66H356.43L353.35 549.07H349.93L363.39 525.48H367.62L381.04 549.07H377.95L374.89 543.66ZM373.49 541.21L365.67 527.43L357.82 541.21H373.49Z" fill="#009E4A"/>
<path d="M410.13 525.48V527.94H398.33V549.07H395.39V527.94H383.59V525.48H410.13Z" fill="#009E4A"/>
<path d="M422.24 525.48H419.29V549.07H422.24V525.48Z" fill="#009E4A"/>
<path d="M452.37 524.99C454.17 524.99 455.69 525.1 456.92 525.32C458.16 525.54 459.17 525.87 459.97 526.32C460.77 526.76 461.38 527.33 461.81 528C462.24 528.68 462.56 529.47 462.76 530.38C462.96 531.29 463.08 532.32 463.11 533.47C463.14 534.62 463.16 535.89 463.16 537.28C463.16 538.67 463.14 539.94 463.11 541.09C463.07 542.24 462.96 543.27 462.76 544.18C462.56 545.09 462.25 545.89 461.81 546.56C461.38 547.23 460.77 547.79 459.97 548.24C459.17 548.68 458.15 549.02 456.92 549.24C455.69 549.46 454.17 549.57 452.37 549.57H443.49C441.69 549.57 440.17 549.46 438.94 549.24C437.71 549.02 436.69 548.69 435.89 548.24C435.09 547.79 434.47 547.23 434.04 546.56C433.6 545.88 433.29 545.09 433.09 544.18C432.89 543.27 432.77 542.24 432.74 541.09C432.71 539.94 432.69 538.67 432.69 537.28C432.69 535.89 432.71 534.62 432.74 533.47C432.77 532.32 432.89 531.29 433.09 530.38C433.29 529.47 433.61 528.68 434.04 528C434.47 527.32 435.09 526.76 435.89 526.32C436.69 525.87 437.7 525.54 438.94 525.32C440.17 525.1 441.69 524.99 443.49 524.99H452.37ZM452.37 547.1C453.67 547.1 454.77 547.06 455.66 546.98C456.55 546.9 457.29 546.75 457.88 546.51C458.46 546.28 458.92 545.94 459.23 545.5C459.55 545.06 459.78 544.48 459.92 543.75C460.06 543.02 460.15 542.13 460.17 541.07C460.19 540.01 460.21 538.74 460.21 537.27C460.21 535.79 460.2 534.53 460.17 533.47C460.14 532.41 460.06 531.52 459.92 530.79C459.78 530.06 459.55 529.48 459.23 529.04C458.91 528.6 458.46 528.26 457.88 528.03C457.3 527.8 456.56 527.64 455.67 527.56C454.77 527.48 453.67 527.45 452.36 527.45H443.48C442.17 527.45 441.07 527.49 440.17 527.56C439.28 527.64 438.53 527.79 437.95 528.03C437.37 528.27 436.91 528.6 436.6 529.04C436.28 529.48 436.05 530.06 435.91 530.79C435.77 531.52 435.68 532.41 435.66 533.47C435.64 534.53 435.63 535.8 435.63 537.27C435.63 538.74 435.64 540.01 435.67 541.07C435.7 542.13 435.78 543.02 435.92 543.75C436.06 544.48 436.29 545.06 436.6 545.5C436.91 545.94 437.36 546.28 437.95 546.51C438.53 546.75 439.27 546.9 440.17 546.98C441.07 547.06 442.17 547.1 443.48 547.1H452.37Z" fill="#009E4A"/>
<path d="M474.56 549.07H471.61V525.48H476.79L498.41 546.12V525.48H501.36V549.07H497.43L474.56 527.94V549.07Z" fill="#009E4A"/>
</g>
<defs>
<clipPath id="clip0_266_6135">
<rect width="668.77" height="549.56" fill="white"/>
</clipPath>
</defs>
</svg>
