<?xml version="1.0" encoding="utf-8"?>
<!-- Generator: Adobe Illustrator 26.0.2, SVG Export Plug-In . SVG Version: 6.00 Build 0)  -->
<svg version="1.1" id="Layer_1" xmlns="http://www.w3.org/2000/svg" xmlns:xlink="http://www.w3.org/1999/xlink" x="0px" y="0px"
	 viewBox="0 0 14400 14400" style="enable-background:new 0 0 14400 14400;" xml:space="preserve">
<style type="text/css">
	.st0{fill:#FFFFFF;}
	.st1{fill:#029D49;}
	.st2{fill:#0A713B;}
	.st3{font-family:'JosefinSans-Medium';}
	.st4{font-size:8.6344px;}
	.st5{letter-spacing:1;}
	.st6{letter-spacing:2;}
	.st7{fill:#2A215B;}
</style>
<g>
	<polygon class="st0" points="7092.17,7251.89 7100.78,7251.89 7100.78,7270.63 7105.52,7270.63 7105.52,7251.89 7114.14,7251.89 
		7114.14,7247.83 7092.17,7247.83 	"/>
	<path class="st0" d="M7138.58,7250.76c-1.17-1.03-2.58-1.82-4.22-2.39c-1.64-0.56-3.46-0.85-5.44-0.85c-1.99,0-3.81,0.28-5.44,0.85
		c-1.64,0.56-3.04,1.36-4.21,2.39c-1.17,1.03-2.08,2.25-2.73,3.68c-0.65,1.43-0.97,3-0.97,4.73c0,1.73,0.32,3.32,0.97,4.76
		s1.56,2.69,2.73,3.73c1.17,1.04,2.57,1.85,4.21,2.43c1.64,0.58,3.45,0.87,5.44,0.87c1.98,0,3.79-0.29,5.44-0.87
		c1.64-0.58,3.05-1.39,4.22-2.43c1.17-1.04,2.08-2.28,2.72-3.73c0.65-1.44,0.97-3.03,0.97-4.76c0-1.72-0.32-3.3-0.97-4.73
		C7140.66,7253.01,7139.75,7251.78,7138.58,7250.76z M7136.88,7262.34c-0.44,0.94-1.04,1.75-1.81,2.41
		c-0.77,0.67-1.68,1.18-2.73,1.54c-1.05,0.36-2.19,0.54-3.43,0.54c-1.24,0-2.38-0.18-3.43-0.54s-1.96-0.87-2.73-1.54
		c-0.77-0.67-1.37-1.47-1.81-2.41c-0.43-0.94-0.65-2-0.65-3.18s0.22-2.23,0.65-3.17c0.43-0.93,1.04-1.72,1.81-2.37
		c0.77-0.65,1.68-1.14,2.73-1.48c1.05-0.34,2.19-0.51,3.43-0.51c1.23,0,2.38,0.17,3.43,0.51c1.05,0.34,1.96,0.83,2.73,1.48
		c0.77,0.65,1.37,1.44,1.81,2.37c0.44,0.93,0.66,1.99,0.66,3.17S7137.32,7261.4,7136.88,7262.34z"/>
	<path class="st0" d="M7163.11,7266.04l2.23,4.59h4.97l-11.29-22.8H7154l-10.96,22.8h4.99l2.17-4.59H7163.11z M7156.56,7252.63
		l5.05,10.36h-9.96L7156.56,7252.63z"/>
	<path class="st0" d="M7270.79,7247.83l-10.96,22.8h4.99l2.17-4.59h12.91l2.23,4.59h4.97l-11.29-22.8H7270.79z M7268.43,7262.99
		l4.91-10.36l5.05,10.36H7268.43z"/>
	<polygon class="st0" points="7192.69,7265.58 7177.96,7247.83 7173.41,7247.83 7173.41,7270.63 7178.14,7270.63 7178.14,7252.9 
		7192.86,7270.63 7197.42,7270.63 7197.42,7247.83 7192.69,7247.83 	"/>
	<polygon class="st0" points="7252.45,7254.69 7237.93,7254.69 7237.93,7247.83 7233.2,7247.83 7233.2,7270.63 7237.93,7270.63 
		7237.93,7257.74 7252.45,7257.74 7252.45,7270.63 7257.2,7270.63 7257.2,7247.83 7252.45,7247.83 	"/>
	<polygon class="st0" points="7284.86,7247.83 7284.86,7251.89 7293.48,7251.89 7293.48,7270.63 7298.22,7270.63 7298.22,7251.89 
		7306.83,7251.89 7306.83,7247.83 	"/>
	<path class="st0" d="M7224.01,7248.42C7224.01,7248.42,7224.01,7248.42,7224.01,7248.42c-0.03-0.01-0.05-0.02-0.08-0.02
		c-1.14-0.33-2.46-0.51-3.95-0.56c-0.1,0-0.21-0.01-0.32-0.01c-0.13,0-0.26,0-0.39,0h-12.31v22.8h4.73v-7.12h4.73
		c0.03,0,0.07,0,0.11,0s0.07,0,0.11,0h4.06c0.02,0,0.05,0,0.07,0c0.02,0,0.03,0,0.05,0h0.33l-0.01-0.01
		c4.41-0.18,7.92-3.62,7.92-7.84C7229.07,7252.41,7226.99,7249.62,7224.01,7248.42z M7224.76,7256.66c0,0,0,0.01,0,0.01
		c-0.04,0.4-0.12,0.77-0.24,1.12c-0.02,0.06-0.05,0.12-0.07,0.19c-0.22,0.55-0.56,1.02-1.02,1.4c-0.45,0.38-1.02,0.68-1.69,0.89
		c-0.67,0.21-1.46,0.31-2.35,0.31h-7.69v-8.72h7.69c1.79,0,3.14,0.38,4.04,1.13c0.9,0.75,1.35,1.81,1.35,3.16
		C7224.78,7256.32,7224.78,7256.49,7224.76,7256.66z"/>
</g>
<path class="st1" d="M7225.96,7231.18h-53.39l-33.05-43.49l11.69-53.41l48.29-24.23l48.44,24.54l11.54,53.42L7225.96,7231.18z
	 M7174.6,7227.08h49.35l31.12-40.07l-10.72-49.64l-44.85-22.72l-44.7,22.42l-10.87,49.65L7174.6,7227.08z"/>
<path class="st1" d="M7226.25,7230.82l-85.79-43.21l59.21-76.7l48.29,24.46L7226.25,7230.82z M7143.98,7186.81l80.68,40.64
	l20.67-90.84l-45-22.79L7143.98,7186.81z"/>
<path class="st1" d="M7173.28,7230.82l-21.09-95.76l48.14-24.15l59.2,77.01L7173.28,7230.82z M7154.81,7136.31l20.07,91.14
	l81.13-40.34l-56.35-73.3L7154.81,7136.31z"/>
<rect x="7198.93" y="7089.27" transform="matrix(3.273341e-03 -1 1 3.273341e-03 40.7049 14312.5146)" class="st1" width="2.3" height="93.14"/>
<g>
	<text transform="matrix(1 0 0 1 7114.1865 7285.9229)"><tspan x="0" y="0" class="st2 st3 st4 st5">TR</tspan><tspan x="14.57" y="0" class="st2 st3 st4 st6">US</tspan><tspan x="30.09" y="0" class="st2 st3 st4 st5">T</tspan></text>
	<text transform="matrix(1 0 0 1 7169.3652 7285.9229)" class="st2 st3 st4 st5">SAFETY</text>
	<polygon class="st7" points="7162.14,7282.64 7157.88,7279.48 7157.88,7286.17 	"/>
	<text transform="matrix(1 0 0 1 7232.4209 7285.9229)" class="st2 st3 st4 st5">QUALITY</text>
	<polygon class="st7" points="7224.91,7282.64 7220.65,7279.48 7220.65,7286.17 	"/>
</g>
</svg>
