<?xml version="1.0" encoding="utf-8"?>
<!-- Generator: Adobe Illustrator 26.0.2, SVG Export Plug-In . SVG Version: 6.00 Build 0)  -->
<svg version="1.1" id="Layer_1" xmlns="http://www.w3.org/2000/svg" xmlns:xlink="http://www.w3.org/1999/xlink" x="0px" y="0px"
	 viewBox="0 0 14400 14400" style="enable-background:new 0 0 14400 14400;" xml:space="preserve">
<style type="text/css">
	.st0{fill:#2A215B;}
	.st1{fill:#029D49;}
	.st2{fill:#0A713B;}
	.st3{font-family:'JosefinSans-Medium';}
	.st4{font-size:25.8227px;}
	.st5{letter-spacing:5;}
	.st6{letter-spacing:6;}
</style>
<g>
	<polygon class="st0" points="6879.5,7358.66 6905.27,7358.66 6905.27,7414.73 6919.43,7414.73 6919.43,7358.66 6945.2,7358.66 
		6945.2,7346.54 6879.5,7346.54 	"/>
	<path class="st0" d="M7018.3,7355.28c-3.5-3.07-7.7-5.45-12.62-7.13c-4.91-1.69-10.33-2.53-16.26-2.53
		c-5.96,0-11.38,0.84-16.28,2.53c-4.9,1.69-9.1,4.07-12.59,7.13c-3.5,3.07-6.22,6.74-8.15,11.02c-1.94,4.28-2.9,8.99-2.9,14.13
		c0,5.18,0.97,9.93,2.9,14.24c1.94,4.32,4.65,8.04,8.15,11.15c3.5,3.11,7.69,5.53,12.59,7.26c4.9,1.73,10.32,2.59,16.28,2.59
		c5.92,0,11.34-0.86,16.26-2.59c4.91-1.73,9.12-4.15,12.62-7.26c3.5-3.11,6.21-6.83,8.15-11.15c1.94-4.32,2.9-9.07,2.9-14.24
		c0-5.15-0.97-9.86-2.9-14.13C7024.52,7362.02,7021.8,7358.35,7018.3,7355.28z M7013.23,7389.94c-1.31,2.82-3.11,5.23-5.4,7.22
		c-2.29,1.99-5.01,3.53-8.15,4.6c-3.14,1.08-6.56,1.62-10.25,1.62c-3.69,0-7.11-0.54-10.25-1.62c-3.14-1.08-5.87-2.61-8.17-4.6
		c-2.31-1.99-4.11-4.4-5.4-7.22c-1.3-2.82-1.94-5.99-1.94-9.51c0-3.52,0.65-6.67,1.94-9.47c1.29-2.79,3.1-5.15,5.4-7.09
		c2.31-1.93,5.03-3.41,8.17-4.43c3.14-1.02,6.56-1.53,10.25-1.53c3.69,0,7.11,0.51,10.25,1.53c3.14,1.02,5.86,2.49,8.15,4.43
		c2.29,1.93,4.09,4.3,5.4,7.09c1.31,2.79,1.97,5.95,1.97,9.47C7015.2,7383.95,7014.54,7387.13,7013.23,7389.94z"/>
	<path class="st0" d="M7091.66,7401l6.67,13.72h14.87l-33.77-68.19h-15.01l-32.78,68.19h14.92l6.48-13.72H7091.66z M7072.08,7360.89
		l15.1,30.98h-29.79L7072.08,7360.89z"/>
	<path class="st0" d="M7413.71,7346.54l-32.78,68.19h14.92l6.48-13.72h38.61l6.68,13.72h14.87l-33.77-68.19H7413.71z
		 M7406.65,7391.86l14.7-30.98l15.1,30.98H7406.65z"/>
	<polygon class="st0" points="7180.13,7399.63 7136.07,7346.54 7122.47,7346.54 7122.47,7414.73 7136.63,7414.73 7136.63,7361.7 
		7180.63,7414.73 7194.29,7414.73 7194.29,7346.54 7180.13,7346.54 	"/>
	<polygon class="st0" points="7358.85,7367.04 7315.44,7367.04 7315.44,7346.54 7301.28,7346.54 7301.28,7414.73 7315.44,7414.73 
		7315.44,7376.16 7358.85,7376.16 7358.85,7414.73 7373.06,7414.73 7373.06,7346.54 7358.85,7346.54 	"/>
	<polygon class="st0" points="7455.8,7346.54 7455.8,7358.66 7481.57,7358.66 7481.57,7414.73 7495.73,7414.73 7495.73,7358.66 
		7521.5,7358.66 7521.5,7346.54 	"/>
	<path class="st0" d="M7273.81,7348.31c-0.01,0-0.01,0-0.01-0.01c-0.07-0.02-0.15-0.04-0.22-0.07c-3.41-0.98-7.35-1.54-11.82-1.67
		c-0.31-0.01-0.63-0.02-0.95-0.02c-0.38-0.01-0.77-0.01-1.16-0.01h-36.8v68.19h14.15v-21.31h14.14c0.1,0,0.21,0,0.32,0
		c0.11,0,0.22,0,0.32,0h12.15c0.07,0,0.15,0,0.22,0c0.05,0,0.1,0,0.14,0h0.99l-0.02-0.02c13.19-0.55,23.7-10.84,23.7-23.46
		C7288.94,7360.22,7282.7,7351.88,7273.81,7348.31z M7276.05,7372.93c0,0.01,0,0.02-0.01,0.04c-0.11,1.19-0.35,2.31-0.72,3.35
		c-0.07,0.19-0.14,0.37-0.21,0.56c-0.67,1.64-1.68,3.04-3.04,4.19c-1.36,1.15-3.04,2.04-5.04,2.66c-2.01,0.62-4.36,0.94-7.04,0.94
		h-23v-26.09h23c5.36,0,9.38,1.13,12.08,3.38c2.69,2.26,4.04,5.4,4.04,9.45C7276.12,7371.93,7276.1,7372.43,7276.05,7372.93z"/>
</g>
<path class="st1" d="M7279.64,7296.75h-159.68l-98.84-130.05l34.97-159.72l144.43-72.45l144.87,73.38l34.5,159.75L7279.64,7296.75z
	 M7126.04,7284.49h147.6l93.06-119.83l-32.06-148.45l-134.15-67.95l-133.68,67.06l-32.51,148.48L7126.04,7284.49z"/>
<path class="st1" d="M7280.5,7295.66l-256.56-129.22L7201,6937.05l144.43,73.16L7280.5,7295.66z M7034.45,7164.05l241.29,121.53
	l61.8-271.67l-134.58-68.17L7034.45,7164.05z"/>
<path class="st1" d="M7122.07,7295.65l-63.07-286.38l143.97-72.22l177.06,230.32L7122.07,7295.65z M7066.86,7013.02l60.03,272.57
	l242.62-120.65l-168.52-219.21L7066.86,7013.02z"/>
<rect x="7198.78" y="6872.32" transform="matrix(3.273341e-03 -1 1 3.273341e-03 167.0737 14190.8271)" class="st1" width="6.87" height="278.56"/>
<g>
	<text transform="matrix(1 0 0 1 6945.3516 7460.457)"><tspan x="0" y="0" class="st2 st3 st4 st5">TR</tspan><tspan x="43.56" y="0" class="st2 st3 st4 st6">US</tspan><tspan x="89.99" y="0" class="st2 st3 st4 st5">T</tspan></text>
	<text transform="matrix(1 0 0 1 7110.3726 7460.457)" class="st2 st3 st4 st5">SAFETY</text>
	<polygon class="st0" points="7088.76,7450.64 7076.03,7441.2 7076.03,7461.19 	"/>
	<text transform="matrix(1 0 0 1 7298.9551 7460.457)" class="st2 st3 st4 st5">QUALITY</text>
	<polygon class="st0" points="7276.49,7450.64 7263.76,7441.2 7263.76,7461.19 	"/>
</g>
</svg>
